# xmcd
#
# Track frame offsets:
#	150
#	19822
#	39139
#	59395
#	77872
#	97175
#	122093
#	141257
#	162214
#
# Disc length: 2443 seconds
# Revision: 0
# Processed by: cddbd v1.5.2PL0 Copyright (c) Steve Scherf et al.
# Submitted via: dBpowerAMP V12.0
#
DISCID=73098909
DTITLE=The Stylistics - A Special Style
DYEAR=1985
DGENRE=Soul
TTITLE0=Special
TTITLE1=I Believe (In You)
TTITLE2=Love Is Serious
TTITLE3=Hungry (For Your Love)
TTITLE4=Honey
TTITLE5=Let's Go Rockin' (Tonight)
TTITLE6=Sad Girl
TTITLE7=O Sha Ma
TTITLE8=Only From The Heart
EXTD=
EXTT0=
EXTT1=
EXTT2=
EXTT3=
EXTT4=
EXTT5=
EXTT6=
EXTT7=
EXTT8=
PLAYORDER=
